<?xml version="1.0" encoding="UTF-8" standalone="no"?>
<!DOCTYPE svg PUBLIC "-//W3C//DTD SVG 1.1//EN" "http://www.w3.org/Graphics/SVG/1.1/DTD/svg11.dtd">
<svg width="100%" height="100%" viewBox="0 0 1249 300" version="1.1" xmlns="http://www.w3.org/2000/svg" xmlns:xlink="http://www.w3.org/1999/xlink" xml:space="preserve" xmlns:serif="http://www.serif.com/" style="fill-rule:evenodd;clip-rule:evenodd;stroke-linejoin:round;stroke-miterlimit:2;">
    <g id="g1372" transform="matrix(2.439016,0.000091,0,2.439024,-0.05003,-6.378858)">
        <g id="g1343" transform="matrix(1,0,0,1,-12.909062,1.089192)">
            <g id="g1954" transform="matrix(0.16123,-0,0,0.160487,10.853735,1.281222)">
                <g id="R">
                    <path id="path930" d="M3128.08,357.49C3121.98,354.06 3117.22,349.3 3113.78,343.22C3110.34,337.14 3108.63,330.33 3108.63,322.78C3108.63,315.13 3110.35,308.27 3113.78,302.19C3117.21,296.11 3121.98,291.36 3128.08,287.92C3134.18,284.49 3141,282.77 3148.55,282.77C3156.1,282.77 3162.92,284.49 3169.02,287.92C3175.12,291.35 3179.88,296.11 3183.32,302.19C3186.75,308.27 3188.47,315.13 3188.47,322.78C3188.47,330.33 3186.75,337.14 3183.32,343.22C3179.88,349.3 3175.12,354.05 3169.02,357.49C3162.92,360.92 3156.1,362.64 3148.55,362.64C3141,362.63 3134.18,360.92 3128.08,357.49ZM3165.24,351.16C3170.18,348.32 3174.02,344.42 3176.78,339.47C3179.54,334.52 3180.92,328.91 3180.92,322.63C3180.92,316.36 3179.54,310.74 3176.78,305.79C3174.02,300.84 3170.18,296.97 3165.24,294.17C3160.3,291.38 3154.74,289.98 3148.55,289.98C3142.26,289.98 3136.67,291.38 3131.78,294.17C3126.89,296.96 3123.07,300.84 3120.31,305.79C3117.55,310.74 3116.17,316.36 3116.17,322.63C3116.17,328.91 3117.55,334.52 3120.31,339.47C3123.07,344.42 3126.89,348.32 3131.78,351.16C3136.67,354 3142.25,355.42 3148.55,355.42C3154.74,355.43 3160.31,354.01 3165.24,351.16ZM3133.44,303.22L3151.01,303.22C3155.95,303.22 3159.7,304.2 3162.26,306.16C3164.82,308.12 3166.11,310.87 3166.11,314.4C3166.11,316.95 3165.29,319.13 3163.64,320.94C3161.99,322.76 3159.58,324.01 3156.38,324.69L3167.99,339.98L3157.1,339.98L3146.36,325.71L3142.44,325.71L3142.44,339.98L3133.44,339.98L3133.44,303.22ZM3156.82,314.54C3156.82,311.6 3154.5,310.13 3149.85,310.13L3142.45,310.13L3142.45,318.66L3149.71,318.66C3154.45,318.66 3156.82,317.29 3156.82,314.54Z" style="fill:rgb(30,215,96);fill-rule:nonzero;"/>
                </g>
                <g id="g350" transform="matrix(6.011987,0,0,6.934419,-64.751946,-9.829593)">
                    <g id="g1315" transform="matrix(0.997016,0,0,1,0.489663,0)">
                        <g id="S-6" transform="matrix(0.166677,0,0,0.144483,10.768935,1.293807)">
                            <g id="g4">
                                <path id="path2" d="M1240.48,395.06C1218.97,373.12 1187.81,356.87 1146.99,346.34L1108.14,335.81C1082.68,329.23 1063.7,323.2 1051.19,317.7C1038.68,312.22 1030.34,306.51 1026.17,300.58C1021.99,294.65 1019.92,287.31 1019.92,278.52C1019.92,264.04 1027.16,251.75 1041.65,241.65C1056.13,231.56 1077.2,226.51 1104.86,226.51C1159.65,226.51 1228.71,258.68 1248.39,285.38L1248.39,182.4C1233.02,170.55 1212.18,160.34 1185.84,151.78C1159.5,143.22 1131.19,138.94 1100.91,138.94C1063.15,138.94 1030.68,145.42 1003.47,158.36C976.25,171.31 955.51,188.65 941.25,210.37C926.98,232.1 919.85,255.47 919.85,280.49C919.85,317.8 930.71,346.99 952.44,368.06C974.17,389.13 1005.87,405.16 1047.58,416.12L1086.43,426.65C1111.01,433.23 1129.44,439.6 1141.74,445.74C1154.02,451.89 1162.15,458.25 1166.1,464.83C1170.05,471.41 1172.03,479.54 1172.03,489.19C1172.03,505.43 1165.33,518.27 1151.95,527.71C1138.56,537.15 1119.13,541.87 1093.68,541.87C1036.24,541.87 949.21,503.76 919.86,456.03L919.86,567.54C935.22,583.34 959.36,597.5 992.28,610.01C1025.2,622.52 1060.53,628.77 1098.28,628.77C1133.83,628.77 1164.78,622.4 1191.11,609.68C1217.45,596.95 1237.63,579.51 1251.68,557.34C1265.72,535.18 1272.75,510.49 1272.75,483.27C1272.74,446.42 1261.98,417.02 1240.48,395.06Z" style="fill:rgb(30,215,96);fill-rule:nonzero;"/>
                            </g>
                        </g>
                        <g id="p-7" transform="matrix(0.166677,0,0,0.144483,10.768935,1.293807)">
                            <g id="g9">
                                <path id="path7" d="M1656.76,358.34C1643.7,331.26 1625.59,309.93 1602.45,294.36C1579.3,278.79 1553.29,271 1524.42,271C1470.33,271 1428.62,297.18 1399.29,349.53L1399.29,276.15L1302.35,276.15L1302.35,728.63L1399.29,728.63L1399.29,550.61C1428.62,602.06 1470.55,627.79 1525.1,627.79C1553.98,627.79 1579.98,620.11 1603.13,604.77C1626.27,589.43 1644.26,568.21 1657.1,541.13C1669.93,514.05 1676.35,483.58 1676.35,449.73C1676.35,415.88 1669.82,385.42 1656.76,358.34ZM1556.72,519.47C1542.05,537.07 1522.8,545.87 1498.97,545.87C1475.59,545.87 1454.85,536.73 1436.75,518.45C1418.64,500.17 1405.47,477.05 1397.22,449.06C1405.47,421.08 1418.64,397.95 1436.75,379.67C1454.85,361.39 1475.59,352.25 1498.97,352.25C1522.8,352.25 1542.05,361.28 1556.72,379.33C1571.38,397.39 1578.72,420.86 1578.72,449.74C1578.72,478.62 1571.39,501.86 1556.72,519.47Z" style="fill:rgb(30,215,96);fill-rule:nonzero;"/>
                            </g>
                        </g>
                        <g id="o-5" transform="matrix(0.166677,0,0,0.144483,10.768935,1.293807)">
                            <g id="g14">
                                <path id="path12" d="M2055.46,357.76C2039.41,330.24 2017.07,308.57 1988.43,292.77C1959.78,276.98 1927.12,269.07 1890.46,269.07C1853.79,269.07 1821.13,276.97 1792.49,292.77C1763.84,308.57 1741.61,330.24 1725.8,357.76C1709.99,385.29 1702.08,415.98 1702.08,449.83C1702.08,483.24 1709.99,513.7 1725.8,541.23C1741.61,568.76 1763.84,590.43 1792.49,606.22C1821.13,622.01 1853.79,629.92 1890.46,629.92C1927.12,629.92 1959.78,622.02 1988.43,606.22C2017.07,590.43 2039.41,568.76 2055.46,541.23C2071.5,513.71 2079.52,483.24 2079.52,449.83C2079.52,415.98 2071.5,385.3 2055.46,357.76ZM1957.15,520.24C1940.19,538.75 1917.96,548 1890.46,548C1863.41,548 1841.41,538.86 1824.46,520.58C1807.5,502.3 1799.02,478.72 1799.02,449.83C1799.02,420.95 1807.5,397.26 1824.46,378.75C1841.41,360.25 1863.41,350.99 1890.46,350.99C1917.5,350.99 1939.62,360.25 1956.8,378.75C1973.99,397.26 1982.58,420.96 1982.58,449.83C1982.59,478.27 1974.1,501.74 1957.15,520.24Z" style="fill:rgb(30,215,96);fill-rule:nonzero;"/>
                            </g>
                        </g>
                        <g id="t-3" transform="matrix(0.166677,0,0,0.144483,10.768935,1.293807)">
                            <g id="g19">
                                <path id="path17" d="M2253.24,534.49C2245.22,526.37 2241.21,513.06 2241.21,494.55L2241.21,355.76L2335.09,355.76L2335.09,279.26L2241.21,279.26L2241.21,185.83L2240.52,185.83L2079.65,310.4L2079.65,355.76L2143.59,355.76L2143.59,508.76C2143.59,547.58 2153.9,576.8 2174.53,596.43C2195.15,616.06 2222.88,625.88 2257.72,625.88C2271.92,625.88 2294.55,623.48 2306.01,619.87C2317.46,616.25 2330.05,609.29 2336.01,603.87L2336.01,532.87C2306.97,556.1 2264.51,545.91 2253.24,534.49Z" style="fill:rgb(30,215,96);fill-rule:nonzero;"/>
                            </g>
                        </g>
                        <g id="i-5" transform="matrix(0.166677,0,0,0.144483,10.768935,1.293807)">
                            <g id="g24">
                                <path id="path22" d="M2373.3,212.87C2384.06,223.02 2397.93,228.1 2414.89,228.1C2431.39,228.1 2445.02,223.02 2455.8,212.87C2466.56,202.71 2471.96,189.97 2471.96,174.62C2471.96,159.28 2466.57,146.52 2455.8,136.37C2445.03,126.22 2431.39,121.14 2414.89,121.14C2397.93,121.14 2384.06,126.22 2373.3,136.37C2362.53,146.52 2357.14,159.28 2357.14,174.62C2357.15,189.97 2362.53,202.71 2373.3,212.87ZM2366.08,619.41L2463.71,619.41L2463.71,279.26L2366.08,279.26L2366.08,619.41Z" style="fill:rgb(30,215,96);fill-rule:nonzero;"/>
                            </g>
                        </g>
                        <g id="f-6" transform="matrix(0.166677,0,0,0.144483,10.768935,1.293807)">
                            <g id="g29">
                                <path id="path27" d="M2656.05,253.46C2658.06,238.03 2661.55,228.8 2668.78,219.58C2676.79,209.37 2687.78,202.23 2704.81,202.23C2714.43,202.23 2730.19,204.99 2738.99,207.87C2750.18,211.56 2771.49,221.23 2776.99,224.87L2741.9,140.07C2734.57,135.97 2724.73,132.11 2712.36,128.46C2700,124.82 2686.95,123 2673.21,123C2637.94,123 2610.13,134.5 2589.76,157.49C2569.38,180.49 2559.19,210.2 2559.19,246.63L2559.19,279.42L2498.18,279.42L2498.18,356.6L2559.19,356.6L2559.19,619.57L2656.04,619.57L2656.04,356.59L2746.71,356.59L2746.71,279.41L2656.04,279.41L2656.04,253.46L2656.05,253.46Z" style="fill:rgb(30,215,96);fill-rule:nonzero;"/>
                            </g>
                        </g>
                        <g id="y-2" transform="matrix(0.166677,0,0,0.144483,10.768935,1.293807)">
                            <g id="g34">
                                <path id="polygon32" d="M2781,728L2886,728L3084.73,279.41L2986.5,279.41L2896.52,495.25L2805.86,279.41L2698.02,279.41L2844.32,593.61L2781,728Z" style="fill:rgb(30,215,96);fill-rule:nonzero;"/>
                            </g>
                        </g>
                    </g>
                    <path id="path40" d="M78.984,1.68C43.918,0.469 14.361,24.208 12.974,54.705C11.58,85.203 38.882,110.903 73.945,112.115C109.012,113.327 138.561,89.588 139.955,59.089C141.342,28.592 114.046,2.888 78.984,1.68ZM105.805,82.633C105.015,83.846 103.477,84.451 101.978,84.269C101.519,84.213 101.06,84.082 100.631,83.87C92.233,79.713 83.08,77.006 73.427,75.823C63.775,74.641 54.116,75.05 44.725,77.036C42.686,77.466 40.637,76.38 40.143,74.606C39.649,72.834 40.898,71.05 42.935,70.62C53.261,68.438 63.878,67.988 74.484,69.286C85.089,70.584 95.147,73.559 104.388,78.131C106.206,79.035 106.845,81.045 105.81,82.631L105.805,82.631L105.805,82.633ZM114.157,68.127C112.861,70.208 109.866,70.985 107.472,69.859C97.645,65.237 87.005,62.201 75.849,60.837C64.692,59.473 53.506,59.842 42.594,61.929C42.002,62.04 41.415,62.06 40.846,61.989C38.865,61.747 37.17,60.464 36.716,58.661C36.129,56.348 37.814,54.059 40.474,53.549C52.536,51.24 64.901,50.832 77.225,52.336C89.543,53.842 101.303,57.196 112.164,62.307C114.563,63.433 115.451,66.034 114.157,68.12L114.157,68.127ZM123.413,51.776C122.194,53.817 119.656,54.873 117.183,54.57C116.514,54.489 115.859,54.307 115.225,54.025C103.783,48.848 91.459,45.428 78.595,43.857C65.731,42.286 52.797,42.619 40.159,44.852C36.873,45.433 33.672,43.584 33.004,40.73C32.335,37.872 34.461,35.089 37.742,34.508C51.739,32.037 66.049,31.669 80.285,33.406C94.52,35.143 108.157,38.932 120.829,44.664C123.803,46.008 124.957,49.195 123.413,51.781L123.413,51.776Z" style="fill:rgb(30,215,96);fill-rule:nonzero;"/>
                </g>
            </g>
        </g>
    </g>
</svg>
